<?xml version="1.0" ?><svg viewBox="0 0 512 512" xmlns="http://www.w3.org/2000/svg"><defs><style>.cls-1{fill:#a5c7e9;}.cls-2{fill:#3f6db5;}</style></defs><g data-name="Layer 3" id="Layer_3"><path class="cls-1" d="M376.12,205.47c0-.68,0-1.36,0-2a97.34,97.34,0,1,0-194.68,0c0,1.15,0,2.29.07,3.43a68.63,68.63,0,1,0-26.88,131.79H352.79a68.63,68.63,0,0,0,23.33-133.18Z"/></g><g id="Outline"><path class="cls-2" d="M298,329.5a7.1,7.1,0,0,0-7.09,7.09v22.55a7.09,7.09,0,0,0,14.18,0V336.59A7.09,7.09,0,0,0,298,329.5Z"/><path class="cls-2" d="M203.07,329.5a7.09,7.09,0,0,0-7.09,7.09v22.55a7.09,7.09,0,1,0,14.17,0V336.59A7.09,7.09,0,0,0,203.07,329.5Z"/><path class="cls-2" d="M250.53,329.5a7.09,7.09,0,0,0-7.08,7.09v22.55a7.09,7.09,0,1,0,14.17,0V336.59A7.09,7.09,0,0,0,250.53,329.5Z"/><path class="cls-2" d="M274.26,375.67a7.09,7.09,0,0,0-7.09,7.09v22.55a7.09,7.09,0,1,0,14.17,0V382.76A7.09,7.09,0,0,0,274.26,375.67Z"/><path class="cls-2" d="M226.81,375.67a7.1,7.1,0,0,0-7.09,7.09v22.55a7.09,7.09,0,0,0,14.18,0V382.76A7.1,7.1,0,0,0,226.81,375.67Z"/><path class="cls-2" d="M382.08,198.23a104.49,104.49,0,0,0-8.51-37.61,7.09,7.09,0,0,0-13,5.62,90.41,90.41,0,0,1,7.06,28A75.76,75.76,0,0,0,279.35,269a7.09,7.09,0,1,0,14.17,0,61.55,61.55,0,1,1,61.54,61.55H335.44a7.09,7.09,0,1,0,0,14.17h19.62a75.72,75.72,0,0,0,27-146.45Z"/><path class="cls-2" d="M343.51,140.27a7.09,7.09,0,1,0,10.33-9.7A101.66,101.66,0,0,0,279,98.07c-54.49,0-99.24,43-102.88,97.15a75.72,75.72,0,1,0-17.21,149.46h17.62a7.09,7.09,0,1,0,0-14.17H158.94A61.55,61.55,0,1,1,180.51,211.3a7.09,7.09,0,0,0,9.12-4.15,7.17,7.17,0,0,0,.35-3.65,7,7,0,0,0,.1-1.13c0-49.7,39.9-90.13,88.95-90.13A87.64,87.64,0,0,1,343.51,140.27Z"/></g></svg>